#!OML:ASF X:\für Bonn\!DataBase\2005_08_10_Bjorn_Final\c3d\bjorn.ASF
:FULLY-SPECIFIED
:DEGREES
128
root -20.9705 19.3325 -1.37316 1251.85 243.08 -169.331
lowerback -7.12679 3.19536 -0.594304
upperback 6.43512 4.78386 -5.19632
thorax 11.3768 2.47019 -4.50054
lowerneck -1.01122 -10.4379 6.47403
upperneck 8.19109 -14.8536 6.36295
head 2.84873 -7.05075 0.569791
rclavicle 0 3.18055e-015
rhumerus 37.2134 1.34064 -26.9279
rradius 58.6977
rwrist -26.6687
rhand 4.53118 5.90159
rfingers 7.12502
rthumb 29.9227 -21.6997
lclavicle 0 3.18055e-015
lhumerus -36.1965 32.0436 62.5601
lradius 13.2221
lwrist -59.9366
lhand -12.309 -6.70974
lfingers 7.12502
lthumb 13.7592 22.8153
rfemur -14.2224 -5.64877 11.6007
rtibia 30.7002
rfoot -11.9133 12.1097
rtoes -4.01162
lfemur -2.88224 -5.30433 -17.5929
ltibia 28.497
lfoot -13.2705 -7.88748
ltoes -14.6103
129
root -20.9758 19.3345 -1.36669 1251.81 243.26 -169.263
lowerback -7.17325 3.17986 -0.663127
upperback 6.42163 4.77299 -5.21064
thorax 11.384 2.45946 -4.4775
lowerneck -1.26122 -10.4332 6.58331
upperneck 8.377 -14.8942 6.33551
head 2.94707 -7.05392 0.522988
rclavicle -8.54774e-014 5.40694e-014
rhumerus 37.3971 1.47479 -26.6596
rradius 58.53
rwrist -26.8092
rhand 4.34687 6.30744
rfingers 7.12502
rthumb 29.7468 -21.3254
lclavicle -8.54774e-014 5.40694e-014
lhumerus -36.0084 31.9883 62.6809
lradius 13.196
lwrist -60.2383
lhand -12.3737 -6.68102
lfingers 7.12502
lthumb 13.6969 22.8482
rfemur -14.2231 -5.51403 11.5892
rtibia 30.6431
rfoot -11.858 12.1868
rtoes -3.82598
lfemur -2.92454 -5.39722 -17.5671
ltibia 28.449
lfoot -13.2006 -8.10204
ltoes -14.1069
130
root -20.9796 19.3359 -1.35904 1251.76 243.486 -169.222
lowerback -7.22816 3.18331 -0.686872
upperback 6.4324 4.78452 -5.23222
thorax 11.431 2.46386 -4.48384
lowerneck -1.48665 -10.429 6.74224
upperneck 8.49203 -14.9255 6.28776
head 3.01108 -7.05581 0.466696
rclavicle 7.49418e-014 -4.05521e-014
rhumerus 37.5942 1.49928 -26.4872
rradius 58.3435
rwrist -26.9819
rhand 4.22571 6.63591
rfingers 7.12502
rthumb 29.6312 -21.0175
lclavicle 7.49418e-014 -4.05521e-014
lhumerus -35.6719 31.8013 62.935
lradius 13.1406
lwrist -60.2825
lhand -12.4458 -6.63684
lfingers 7.12502
lthumb 13.6274 22.8971
rfemur -14.2075 -5.43854 11.5965
rtibia 30.5803
rfoot -11.7948 12.3368
rtoes -3.87074
lfemur -2.91014 -5.50191 -17.5152
ltibia 28.4083
lfoot -13.1413 -8.38219
ltoes -13.3729
131
root -20.9814 19.3363 -1.35106 1251.69 243.725 -169.133
lowerback -7.30053 3.18372 -0.762637
upperback 6.43519 4.79745 -5.24064
thorax 11.4735 2.46377 -4.44531
lowerneck -1.70762 -10.4197 6.82417
upperneck 8.62278 -14.955 6.29642
head 3.09127 -7.05625 0.438426
rclavicle 6.55989e-015 -1.59028e-014
rhumerus 37.7983 1.46291 -26.3959
rradius 58.2293
rwrist -27.2099
rhand 4.13821 6.78946
rfingers 7.12502
rthumb 29.5476 -20.8788
lclavicle 6.55989e-015 -1.59028e-014
lhumerus -35.3714 31.752 63.1323
lradius 13.0804
lwrist -60.3461
lhand -12.4805 -6.73556
lfingers 7.12502
lthumb 13.5939 22.8006
rfemur -14.2202 -5.27364 11.5781
rtibia 30.5185
rfoot -11.7228 12.4367
rtoes -3.71693
lfemur -2.92659 -5.60384 -17.4822
ltibia 28.3785
lfoot -13.0574 -8.68689
ltoes -12.6682
132
root -20.9806 19.3379 -1.34167 1251.63 243.984 -169.076
lowerback -7.33642 3.211 -0.756863
upperback 6.42432 4.83862 -5.29304
thorax 11.493 2.48626 -4.49758
lowerneck -1.92885 -10.4254 7.0161
upperneck 8.77274 -15.0085 6.26429
head 3.1663 -7.06604 0.380329
rclavicle 1.53064e-014 -3.18055e-014
rhumerus 37.9311 1.32464 -26.5177
rradius 58.1123
rwrist -27.3845
rhand 4.01585 6.82693
rfingers 7.12502
rthumb 29.4308 -20.8619
lclavicle 1.53064e-014 -3.18055e-014
lhumerus -34.9428 31.3468 63.4823
lradius 13.0421
lwrist -60.0411
lhand -12.5272 -6.83589
lfingers 7.12502
lthumb 13.5489 22.7033
rfemur -14.228 -5.15289 11.5709
rtibia 30.4477
rfoot -11.6241 12.591
rtoes -3.58916
lfemur -2.93483 -5.73947 -17.4399
ltibia 28.3657
lfoot -13.0895 -8.91801
ltoes -12.6641
133
root -20.9766 19.3403 -1.33032 1251.56 244.266 -169.003
lowerback -7.38448 3.22548 -0.783174
upperback 6.43509 4.86426 -5.30405
thorax 11.5357 2.49665 -4.48854
lowerneck -2.16581 -10.4027 7.09601
upperneck 8.9273 -15.0257 6.27295
head 3.25859 -7.05837 0.350573
rclavicle 2.84262e-014 -5.64548e-014
rhumerus 38.0948 1.1251 -26.6482
rradius 58.0648
rwrist -27.6084
rhand 3.56245 6.89326
rfingers 7.12502
rthumb 28.9979 -20.8709
lclavicle 2.84262e-014 -5.64548e-014
lhumerus -34.4427 30.8464 64.0352
lradius 13.0668
lwrist -59.5996
lhand -12.4774 -6.70076
lfingers 7.12502
lthumb 13.5969 22.8352
rfemur -14.242 -5.04427 11.551
rtibia 30.3636
rfoot -11.4968 12.7829
rtoes -3.37576
lfemur -2.95469 -5.88018 -17.4034
ltibia 28.3752
lfoot -13.1053 -9.18268
ltoes -12.5673
134
root -20.9706 19.3433 -1.31806 1251.47 244.609 -168.906
lowerback -7.42846 3.26923 -0.77341
upperback 6.44405 4.92731 -5.3435
thorax 11.5839 2.52946 -4.52464
lowerneck -2.41031 -10.3812 7.22887
upperneck 9.0841 -15.0484 6.27372
head 3.3487 -7.0518 0.309893
rclavicle -4.4329e-014 -4.77083e-015
rhumerus 38.2228 0.81962 -26.9126
rradius 58.009
rwrist -27.8349
rhand 2.88346 6.98142
rfingers 7.12502
rthumb 28.3492 -20.8924
lclavicle -4.4329e-014 -4.77083e-015
lhumerus -33.7773 29.8371 64.8749
lradius 13.1476
lwrist -58.5376
lhand -12.5017 -6.50342
lfingers 7.12502
lthumb 13.5735 23.0341
rfemur -14.2734 -4.93258 11.5252
rtibia 30.2726
rfoot -11.3143 13.023
rtoes -3.19207
lfemur -2.9742 -6.02074 -17.3731
ltibia 28.3993
lfoot -13.1749 -9.41322
ltoes -12.9012
135
root -20.9619 19.3467 -1.30437 1251.38 244.966 -168.799
lowerback -7.48107 3.31064 -0.768755
upperback 6.45211 4.98761 -5.37622
thorax 11.6349 2.56017 -4.5505
lowerneck -2.62268 -10.3547 7.30301
upperneck 9.21002 -15.0601 6.31613
head 3.43094 -7.04222 0.293874
rclavicle 9.20373e-014 -1.98785e-014
rhumerus 38.32 0.475755 -27.2072
rradius 58.0271
rwrist -28.1113
rhand 2.07916 7.08701
rfingers 7.12502
rthumb 27.5803 -20.9121
lclavicle 9.20373e-014 -1.98785e-014
lhumerus -33.0858 28.5806 65.854
lradius 13.3101
lwrist -57.1864
lhand -12.4788 -6.25372
lfingers 7.12502
lthumb 13.5956 23.2823
rfemur -14.3192 -4.79079 11.4922
rtibia 30.1722
rfoot -11.1358 13.2548
rtoes -2.99032
lfemur -3.00911 -6.17299 -17.3488
ltibia 28.4351
lfoot -13.278 -9.59327
ltoes -13.6354
136
root -20.9516 19.3489 -1.28945 1251.26 245.347 -168.677
lowerback -7.53662 3.35924 -0.759361
upperback 6.47729 5.05742 -5.40243
thorax 11.708 2.59564 -4.57005
lowerneck -2.91396 -10.3305 7.30782
upperneck 9.4116 -15.0897 6.37061
head 3.56175 -7.03651 0.283466
rclavicle -1.78906e-014 -9.54166e-015
rhumerus 38.4382 0.0592711 -27.5669
rradius 58.0122
rwrist -28.3217
rhand 0.857831 7.34058
rfingers 7.12502
rthumb 26.4118 -20.8395
lclavicle -1.78906e-014 -9.54166e-015
lhumerus -32.3693 27.2576 66.8673
lradius 13.518
lwrist -55.8179
lhand -12.4349 -6.0535
lfingers 7.12502
lthumb 13.6379 23.4797
rfemur -14.3675 -4.70943 11.4518
rtibia 30.0775
rfoot -10.9438 13.5515
rtoes -2.88605
lfemur -3.03438 -6.33713 -17.334
ltibia 28.4736
lfoot -13.383 -9.72833
ltoes -14.7576
137
root -20.9398 19.3515 -1.27408 1251.18 245.743 -168.592
lowerback -7.60818 3.40147 -0.746412
upperback 6.51727 5.11802 -5.41009
thorax 11.8053 2.62616 -4.57208
lowerneck -3.16179 -10.3093 7.21866
upperneck 9.5744 -15.1133 6.46421
head 3.68257 -7.032 0.303253
rclavicle 3.1408e-014 -2.54444e-014
rhumerus 38.559 -0.403437 -27.9418
rradius 58.0599
rwrist -28.5191
rhand -0.442471 7.58624
rfingers 7.12502
rthumb 25.1665 -20.7747
lclavicle 3.1408e-014 -2.54444e-014
lhumerus -31.691 25.9818 67.8552
lradius 13.7697
lwrist -54.505
lhand -12.433 -5.85387
lfingers 7.12502
lthumb 13.6397 23.6792
rfemur -14.4206 -4.57182 11.4307
rtibia 29.9797
rfoot -10.7437 13.8136
rtoes -2.69481
lfemur -3.05788 -6.48506 -17.2874
ltibia 28.5128
lfoot -13.5199 -9.86256
ltoes -16.2607
138
root -20.926 19.3526 -1.25742 1250.99 246.159 -168.4
lowerback -7.65237 3.46209 -0.75413
upperback 6.54682 5.20659 -5.44676
thorax 11.8781 2.66959 -4.59037
lowerneck -3.37418 -10.3177 7.11578
upperneck 9.72004 -15.172 6.57204
head 3.7939 -7.04653 0.331252
rclavicle 2.68359e-014 2.06736e-014
rhumerus 38.6191 -0.919464 -28.3529
rradius 58.1169
rwrist -28.7698
rhand -1.76797 7.96027
rfingers 7.12502
rthumb 23.8959 -20.573
lclavicle 2.68359e-014 2.06736e-014
lhumerus -31.0043 24.5781 68.8382
lradius 14.0489
lwrist -53.1243
lhand -12.4749 -5.65241
lfingers 7.12502
lthumb 13.5993 23.8834
rfemur -14.4825 -4.42618 11.3572
rtibia 29.8875
rfoot -10.5244 14.1063
rtoes -2.34728
lfemur -3.0754 -6.68326 -17.2952
ltibia 28.5409
lfoot -13.6445 -9.93484
ltoes -17.6853
139
root -20.9116 19.3552 -1.24129 1250.89 246.587 -168.297
lowerback -7.7075 3.50693 -0.759845
upperback 6.5722 5.27161 -5.45572
thorax 11.9475 2.70044 -4.58283
lowerneck -3.53405 -10.3213 6.92274
upperneck 9.89979 -15.2174 6.68642
head 3.9162 -7.05646 0.377431
rclavicle -4.47266e-014 5.56597e-014
rhumerus 38.7559 -1.47083 -28.8709
rradius 58.1514
rwrist -28.8872
rhand -3.08749 8.37985
rfingers 7.12502
rthumb 22.63 -20.3135
lclavicle -4.47266e-014 5.56597e-014
lhumerus -30.3873 23.1653 69.794
lradius 14.3697
lwrist -51.6838
lhand -12.5509 -5.56152
lfingers 7.12502
lthumb 13.526 23.9792
rfemur -14.5484 -4.26784 11.3333
rtibia 29.7886
rfoot -10.3048 14.3765
rtoes -2.14428
lfemur -3.08729 -6.89671 -17.2513
ltibia 28.558
lfoot -13.7956 -10.0062
ltoes -19.0061
